HIERARCHY
ROOT root
{
	OFFSET	0	13.1	24.9
	CHANNELS 6  Xposition Yposition Zposition Xrotation Yrotation Zrotation
	JOINT spine_1
	{
		OFFSET	0	9.99999	0
		CHANNELS 3  Xrotation Yrotation Zrotation
		JOINT spine_2
		{
			OFFSET	0	112	-10
			CHANNELS 3  Xrotation Yrotation Zrotation
			JOINT spine_3
			{
				OFFSET	0	206.5	19.3
				CHANNELS 3  Xrotation Yrotation Zrotation
				JOINT spine_4
				{
					OFFSET	0	110.4	14.6
					CHANNELS 3  Xrotation Yrotation Zrotation
					JOINT neck_1
					{
						OFFSET	0	71.8	-50.3
						CHANNELS 3  Xrotation Yrotation Zrotation
						JOINT neck_2
						{
							OFFSET	0	86.2	-25.8
							CHANNELS 3  Xrotation Yrotation Zrotation
							JOINT head_ee
							{
								OFFSET	0	179.8	-8.7
								CHANNELS 3  Xrotation Yrotation Zrotation
								End Site
								{
									OFFSET	1	0	0
								}
							}
						}
					}
					JOINT left_clavicle
					{
						OFFSET	-43.2	22.4	-70.8
						CHANNELS 3  Xrotation Yrotation Zrotation
						JOINT left_shoulder
						{
							OFFSET	-93.9	-5.79999	48.7
							CHANNELS 3  Xrotation Yrotation Zrotation
							JOINT left_elbow
							{
								OFFSET	-291.4	-30.8	15.2
								CHANNELS 3  Xrotation Yrotation Zrotation
								JOINT left_lowarm_twist
								{
									OFFSET	-110.7	-3.89999	13.6
									CHANNELS 3  Xrotation Yrotation Zrotation
									JOINT left_hand
									{
										OFFSET	-110.7	-3.89999	13.6
										CHANNELS 3  Xrotation Yrotation Zrotation
										JOINT left_ee
										{
											OFFSET	-80.8	-5.10001	12.1
											CHANNELS 3  Xrotation Yrotation Zrotation
											End Site
											{
												OFFSET	1	0	0
											}
										}
									}
								}
							}
						}
					}
					JOINT right_clavicle
					{
						OFFSET	43.2	22.4	-70.8
						CHANNELS 3  Xrotation Yrotation Zrotation
						JOINT right_shoulder
						{
							OFFSET	93.9	-5.79999	48.7
							CHANNELS 3  Xrotation Yrotation Zrotation
							JOINT right_elbow
							{
								OFFSET	291.4	-30.8	15.2
								CHANNELS 3  Xrotation Yrotation Zrotation
								JOINT right_lowarm_twist
								{
									OFFSET	110.7	-3.89999	13.6
									CHANNELS 3  Xrotation Yrotation Zrotation
									JOINT right_hand
									{
										OFFSET	110.7	-3.89999	13.6
										CHANNELS 3  Xrotation Yrotation Zrotation
										JOINT right_ee
										{
											OFFSET	80.8	-5.10001	12.1
											CHANNELS 3  Xrotation Yrotation Zrotation
											End Site
											{
												OFFSET	1	0	0
											}
										}
									}
								}
							}
						}
					}
				}
			}
		}
	}
	JOINT left_hip
	{
		OFFSET	-82.8	-127.5	0.300001
		CHANNELS 3  Xrotation Yrotation Zrotation
		JOINT left_knee
		{
			OFFSET	-28.2	-396.7	2.2
			CHANNELS 3  Xrotation Yrotation Zrotation
			JOINT left_ankle
			{
				OFFSET	-11.7	-411.3	35.4
				CHANNELS 3  Xrotation Yrotation Zrotation
				JOINT left_toes
				{
					OFFSET	0	-60	-88.6
					CHANNELS 3  Xrotation Yrotation Zrotation
					JOINT left_foot_ee
					{
						OFFSET	-22.5	-16.5	-42.2
						CHANNELS 3  Xrotation Yrotation Zrotation
						End Site
						{
							OFFSET	1	0	0
						}
					}
				}
			}
		}
	}
	JOINT right_hip
	{
		OFFSET	82.8	-127.5	0.300001
		CHANNELS 3  Xrotation Yrotation Zrotation
		JOINT right_knee
		{
			OFFSET	28.2	-396.7	2.2
			CHANNELS 3  Xrotation Yrotation Zrotation
			JOINT right_ankle
			{
				OFFSET	11.7	-411.3	35.4
				CHANNELS 3  Xrotation Yrotation Zrotation
				JOINT right_toes
				{
					OFFSET	0	-60	-88.6
					CHANNELS 3  Xrotation Yrotation Zrotation
					JOINT right_foot_ee
					{
						OFFSET	22.5	-16.5	-42.2
						CHANNELS 3  Xrotation Yrotation Zrotation
						End Site
						{
							OFFSET	1	0	0
						}
					}
				}
			}
		}
	}
}
MOTION
Frames: 8
Frame Time: 0.02
641.905 672.498 -549.727 171.925 -59.0768 162.115 -2.18145 1.09873 5.2771 -2.16629 0.7612 5.33609 -2.07717 -0.572488 5.35955 -2.11712 0.279872 5.3827 -26.6022 14.2865 14.7879 -27.0282 21.7906 21.3982 -0.0 0.0 -0.0 -3.43991 22.4469 -2.21579 -12.0492 17.9144 73.03 0.742314 -20.1895 0.132158 -6.3556 -0.266812 0.766991 1.73436 13.3753 16.6256 -0.0 0.0 -0.0 12.4842 27.7421 -24.2779 17.8857 37.4168 -67.1777 2.29306 48.6342 -1.03629 65.8502 2.32152 7.62029 0.624667 0.828205 -3.8336 0.0 0.0 0.0 26.6017 36.3231 -10.6905 -14.3775 0.320234 2.17739 -5.81836 14.2621 0.866017 -11.181 0.0 0.0 -0.0 0.0 -0.0 -10.2965 39.4924 9.11397 -42.8331 0.656772 -6.39026 40.5985 -8.15934 4.91714 -12.0038 0.0 0.0 0.0 0.0 0.0 
654.507 671.412 -556.426 172.838 -58.6646 162.992 -2.10003 1.10026 5.26412 -2.08495 0.76355 5.32324 -1.99621 -0.559454 5.34847 -2.03598 0.291001 5.36971 -25.641 14.7019 13.8566 -26.1829 22.7427 20.5251 -0.0 0.0 -0.0 -2.82658 22.3915 -1.36356 -11.5186 16.5198 71.7814 0.72526 -19.762 0.126332 -6.13731 -0.256243 0.741155 1.77269 10.6386 15.9378 -0.0 0.0 -0.0 12.361 28.2186 -23.9352 17.7663 38.0131 -67.841 2.25609 48.1721 -1.00864 65.6852 2.30536 7.6066 0.761001 0.864622 -4.73362 0.0 0.0 0.0 27.3152 36.4678 -11.3378 -15.5892 0.322086 2.36328 -4.42023 13.7043 0.655661 -9.26964 0.0 0.0 -0.0 0.0 -0.0 -10.0857 38.8815 9.23433 -42.5943 0.640014 -6.35759 41.588 -10.9383 5.02133 -11.6798 0.0 0.0 0.0 0.0 0.0 
666.619 673.125 -562.113 173.014 -59.2023 163.172 -1.99994 0.997287 5.27463 -1.98472 0.660117 5.32719 -1.90627 -0.652779 5.32809 -1.94581 0.195633 5.36426 -25.8757 14.2066 13.1803 -26.4245 22.1008 19.7124 -0.0 0.0 -0.0 -2.75205 21.7993 -1.3715 -10.286 16.5348 71.4342 0.705097 -19.2535 0.119599 -6.00269 -0.249773 0.725202 1.67573 9.70872 14.9613 -0.0 0.0 -0.0 12.1858 28.5639 -23.4908 17.4552 37.5429 -67.8335 2.14239 46.6968 -0.924891 65.6483 2.30176 7.60354 0.767125 0.621856 -4.87469 0.0 0.0 0.0 27.1121 36.4801 -10.5217 -17.4737 0.317156 2.65237 -2.64682 12.9214 0.390798 -7.3927 0.0 0.0 -0.0 0.0 -0.0 -8.8296 37.3407 8.68074 -42.0245 0.600564 -6.27934 40.6883 -14.0134 4.97948 -11.1918 0.0 0.0 0.0 0.0 0.0 
687.948 678.67 -571.648 173.888 -59.4038 164.386 -1.96901 1.04567 5.22414 -1.95412 0.711604 5.27987 -1.87172 -0.587888 5.29503 -1.91074 0.254519 5.32141 -24.6957 14.7351 12.8075 -25.2885 23.0349 19.3353 -0.0 0.0 -0.0 -2.60722 21.207 -1.27552 -8.9719 16.7695 71.4237 0.752757 -20.4501 0.135784 -6.11374 -0.255107 0.738363 1.73722 9.83608 15.4173 -0.0 0.0 -0.0 11.0963 28.2226 -21.069 16.5884 38.8493 -68.6384 2.09704 46.085 -0.89206 66.2008 2.35597 7.64919 0.883609 0.365532 -5.76231 0.0 0.0 0.0 27.3161 36.5302 -10.5189 -19.854 0.297347 3.01703 -1.58302 12.2255 0.233004 -5.80733 0.0 0.0 -0.0 0.0 -0.0 -8.54029 37.2118 10.2291 -42.6586 0.644508 -6.36639 42.3898 -19.4632 5.23036 -10.4619 0.0 0.0 0.0 0.0 0.0 
700.449 682.888 -580.931 175.52 -59.1449 165.884 -1.78214 1.0007 5.26679 -1.76696 0.664021 5.31958 -1.6892 -0.6269 5.32407 -1.72867 0.220559 5.35622 -24.2256 14.7843 12.2342 -24.8542 23.2757 18.7186 -0.0 0.0 -0.0 -2.39491 20.7259 -1.05631 -8.21598 16.3442 71.0198 0.767982 -20.8286 0.141151 -6.17896 -0.258252 0.746088 1.8 9.65381 15.7726 -0.0 0.0 -0.0 10.2448 27.9841 -19.1878 16.6958 40.4967 -69.7584 2.08708 45.9487 -0.884891 66.439 2.37948 7.66872 0.931384 -0.0432592 -6.2504 0.0 0.0 0.0 28.6153 36.4149 -11.0069 -21.6846 0.271818 3.29675 -0.839969 11.8466 0.123381 -4.58264 0.0 0.0 -0.0 0.0 -0.0 -7.6988 35.9976 10.9814 -43.3433 0.693046 -6.45985 42.4287 -24.0977 5.36462 -9.61686 0.0 0.0 0.0 0.0 0.0 
715.045 685.556 -586.256 176.352 -59.2631 167.198 -1.75309 1.0435 5.20756 -1.7383 0.710482 5.26319 -1.65722 -0.565109 5.28073 -1.696 0.274765 5.3037 -23.9371 14.8995 12.5663 -24.5218 23.3001 18.9896 -0.0 0.0 -0.0 -2.36144 20.6653 -1.01851 -6.83068 16.0201 70.571 0.786617 -21.2891 0.147847 -6.13536 -0.256149 0.740924 1.82257 10.2586 16.1376 -0.0 0.0 -0.0 10.0896 27.9165 -18.849 16.1476 40.8469 -69.8353 1.99955 44.722 -0.82263 66.8256 2.4178 7.70019 0.959701 -0.382013 -6.5786 0.0 0.0 0.0 28.9023 36.4987 -10.7127 -22.9229 0.249486 3.48545 -0.398265 12.3502 0.0584743 -3.71913 0.0 0.0 -0.0 0.0 -0.0 -7.58277 35.7786 10.8835 -43.921 0.734871 -6.53826 42.6184 -26.7005 5.47428 -9.61501 0.0 0.0 0.0 0.0 0.0 
736.683 686.083 -594.967 177.162 -58.7308 168.867 -1.56664 1.03216 4.90687 -1.55354 0.718231 4.96241 -1.47782 -0.46995 4.99197 -1.51244 0.32332 5.00358 -21.6427 15.0748 10.2098 -22.32 24.2514 16.3433 -0.0 0.0 -0.0 -2.09559 20.6977 -0.626515 -5.82976 15.6733 70.6655 0.887286 -23.7269 0.186393 -5.90833 -0.245262 0.714012 1.8933 10.9253 16.8438 -0.0 0.0 -0.0 9.97793 28.0615 -18.5826 14.8343 42.1684 -69.1839 1.89777 43.2272 -0.75196 65.9685 2.33312 7.63006 1.16341 -0.685003 -8.07165 0.0 0.0 0.0 28.812 36.2745 -11.0773 -24.1187 0.224054 3.66718 1.05949 12.2838 -0.155009 -3.07231 0.0 0.0 -0.0 0.0 -0.0 -9.10766 35.1879 12.4661 -42.4561 0.63037 -6.33864 41.3986 -25.3832 5.31329 -9.93136 0.0 0.0 0.0 0.0 0.0 
756.231 686.032 -603.892 177.93 -59.169 170.382 -1.34281 1.04379 4.78206 -1.33039 0.737749 4.83861 -1.25595 -0.402763 4.87784 -1.28894 0.371712 4.88029 -19.0761 14.0303 7.38846 -19.653 23.1918 12.6492 -0.0 0.0 -0.0 -1.84243 20.2159 -0.337869 -5.09698 14.8312 70.2538 1.03433 -27.1288 0.249557 -5.98229 -0.248797 0.722785 2.1121 11.5715 18.5347 -0.0 0.0 -0.0 9.82854 28.0381 -18.2524 14.1832 42.9179 -69.2085 1.67046 39.6045 -0.601516 66.4314 2.37873 7.66809 1.11355 -2.60557 -8.50593 0.0 0.0 0.0 29.4813 36.152 -11.5144 -26.6867 0.156645 4.05548 4.839 6.77508 -0.699393 -0.683157 0.0 0.0 -0.0 0.0 -0.0 -9.80875 34.2902 13.6795 -41.019 0.532867 -6.14033 42.3302 -24.9821 5.38541 -10.2132 0.0 0.0 0.0 0.0 0.0 
